PathFileType	4	(X/Y/Z)	OpenSim_Sub02_EMGBaseline_Accel.trc
DataRate	CameraRate	NumFrames	NumMarkers	Units	OrigDataRate	OrigDataStartFrame	OrigNumFrames
100	100	34	8	m	100	841	6727
Frame#	Time	torso_imu_offset_imu	pelvis_imu_offset_imu	tibia_r_imu_offset_imu	femur_r_imu_offset_imu	tibia_l_imu_offset_imu	femur_l_imu_offset_imu	toes_r_imu_offset_imu	toes_l_imu_offset_imu
				X1	Y1	Z1	X2	Y2	Z2	X3	Y3	Z3	X4	Y4	Z4	X5	Y5	Z5	X6	Y6	Z6	X7	Y7	Z7	X8		Y8	Z8	

841	8.40000000	8.49518511	0.28909252	7.12650444	9.27427998	-0.94831619	2.22695279	10.87274140	-1.55145401	3.55758570	7.79833994	-2.37066350	3.26054383	9.94332218	-0.22703686	0.07849337	9.15129255	-0.02567661	-2.38820256	14.52249044	-0.65902086	12.61323168	3.76208901	0.95754492	11.65610544
842	8.41000000	8.60561836	0.15338210	7.12519407	9.07276284	-0.80042949	2.31012237	11.87712077	-2.57243798	3.03612141	8.39532724	-2.76828491	3.37902360	10.02459089	0.15162819	0.07092674	9.24745146	0.09019269	-2.45699472	14.94953524	-0.60290329	11.16328488	3.49505242	0.99417348	11.70567320
843	8.42000000	8.60295821	0.07512260	7.16528953	9.00074042	-0.53519572	2.35174622	12.67050887	-2.65190908	1.87668866	9.04432762	-3.22674999	3.30414289	10.02857002	0.49362311	-0.12516069	9.24151623	0.25894387	-2.55836571	14.79627597	0.81714666	9.69399468	3.08785045	1.08753602	11.95469176
844	8.43000000	8.54110444	0.05848626	7.17304205	8.95937735	-0.37630402	2.35173176	13.86633598	-2.19545544	0.15237583	9.40509179	-3.91951549	3.15023222	10.10928802	0.79736087	-0.13979499	9.24759437	0.32308683	-2.69013496	15.14671052	3.23615615	8.61874179	3.35988291	1.10978407	11.82392378
845	8.44000000	8.46068780	0.03914674	7.05388925	8.84167307	-0.51395647	2.40066276	14.69078108	-1.33569578	1.40891390	9.32270309	-5.08514228	3.48972987	10.06341703	0.71438916	-0.17116784	9.19499217	0.51904968	-2.80236395	15.68921645	1.29487447	7.26736591	3.60127754	1.01402584	11.72686652
846	8.45000000	8.43860625	0.02727629	6.99762893	8.85596352	-0.67328372	2.43057158	13.94204556	0.59565645	3.46175346	9.10252348	-6.58347076	4.42319769	10.00421563	0.54835086	-0.18656289	8.96675158	0.78617156	-2.89148299	15.88945941	1.33665596	5.51555131	3.82826132	0.96454284	11.68727603
847	8.46000000	8.52251772	-0.02328577	7.02018840	8.96760012	-0.76646701	2.45999680	12.52195244	2.84253848	1.84290088	8.93522748	-8.25821768	5.08460200	9.98335945	0.47422327	-0.17895274	8.78463950	1.00089372	-2.94052822	16.32657990	5.24381868	3.66416523	3.34269830	1.07699306	11.88064798
848	8.47000000	8.71373626	-0.06252921	6.93787109	9.15669151	-0.84304450	2.52728585	10.25286382	3.09192551	1.73747476	8.82928895	-9.85632516	4.68183320	9.91787618	0.42983144	-0.68196690	8.85448680	1.01955433	-2.88390199	17.23844912	6.11048794	1.06583064	3.17607448	1.12769478	11.93483317
849	8.48000000	8.93947760	-0.05233787	6.93749076	9.43131435	-0.95186660	2.50213943	7.95065791	1.28780624	3.32347582	9.00457257	-10.56367094	3.26088646	9.95220658	0.05919685	-1.25708466	8.88300442	0.84766922	-2.91929255	18.44005600	6.93800168	-2.09965403	3.55877753	1.13360281	11.90244397
850	8.49000000	9.12799596	-0.03924966	6.99533202	9.63172148	-1.13720284	2.51622319	7.15784680	-1.49968508	2.26603960	9.66536551	-10.01797345	1.95819619	10.14765450	-0.54027084	-1.30066434	8.85698439	0.61268216	-3.15872204	18.73321861	8.90158807	-5.26298226	3.67494492	1.06964049	11.93590182
851	8.50000000	9.24490367	-0.05571623	6.97388668	9.66553660	-1.41375543	2.53133656	7.14460015	-4.27418030	0.51844278	10.19605566	-8.99217502	1.83959988	10.30558367	-0.74208450	-0.99475947	8.74093201	0.43609928	-3.49055167	18.69617779	8.77824103	-7.54198569	3.89365580	0.90136999	11.85910412
852	8.51000000	9.23177347	-0.05340092	7.00718663	9.67567801	-1.62144959	2.32403043	7.79416161	-5.22136434	0.31722353	10.01294375	-7.88465947	2.63494403	10.30294370	-0.54820428	-1.06171229	8.51810318	0.40462624	-3.70105240	17.21635610	5.74911519	-8.34492859	3.26565100	1.03246155	12.08915332
853	8.52000000	9.11335871	-0.10114873	6.98693779	9.57663725	-1.77685072	1.99276198	8.56688127	-3.38975310	0.64542173	9.16659536	-6.57958784	3.34527837	10.15750292	-0.19429924	-0.91495001	8.60078553	0.05250440	-3.71499472	14.52818780	4.76345022	-7.44460107	3.28142796	1.32036507	12.17865834
854	8.53000000	8.96130608	-0.16270530	6.93703194	9.43013662	-2.00716952	1.64808427	8.51741080	-0.65674162	0.75384155	8.14009920	-5.25942281	3.44885999	9.98426189	-0.29357325	-0.12799830	8.77129982	-0.62344883	-3.58934898	12.73212971	6.41535768	-4.35423702	3.56344466	1.13494741	12.18503419
855	8.54000000	8.83142423	-0.22896845	6.84741981	9.42348166	-2.38920670	1.40918005	7.96179003	0.83867472	1.07300458	7.35343748	-4.02375330	3.33203792	10.05318814	-0.86484564	0.35345109	8.92762393	-1.22598232	-3.40381648	7.91476088	5.56343155	-1.95751961	3.64817253	0.94615330	12.29231692
856	8.55000000	8.71386163	-0.28189029	6.77449545	9.39381701	-2.83225242	1.28239388	7.76722234	1.14211911	0.93531149	6.73594937	-3.42643248	3.33067182	10.26816854	-1.33261907	0.59747832	9.21811745	-1.58461750	-3.21965549	4.23536227	5.05540813	13.03034084	3.39279108	0.54814778	12.53165214
857	8.56000000	8.71901588	-0.29335401	6.76292066	9.38003319	-3.20660475	1.35747628	7.94052437	1.61686284	1.16319420	6.48043641	-3.08822130	3.64252705	10.50581146	-1.55796872	1.41518800	9.49466478	-1.57551818	-3.00695993	1.13742442	-3.31345031	22.45616964	2.92515152	0.33731507	12.89269888
858	8.57000000	8.88590773	-0.31008141	6.69988818	9.49356459	-3.29182896	1.68775110	8.34366281	2.46512692	2.97504032	7.23807787	-2.71769872	4.16840948	10.54212164	-1.54094556	2.18313543	9.72014220	-1.39575590	-2.78746215	-6.35111568	-11.21674288	8.57428423	3.08111733	0.26493344	12.90689322
859	8.58000000	9.22795134	-0.33419808	6.72393251	9.87381569	-2.58154617	2.09897743	10.01343802	2.99284586	4.14248265	9.25665247	-2.72764809	4.44707341	10.62412223	-1.51019543	2.34662653	10.04259269	-1.12560896	-2.62023861	-10.85280155	-3.48686616	0.49012794	3.15960478	0.16064318	13.10064824
860	8.59000000	9.82007943	-0.36720201	6.84670679	10.62782388	-1.21413726	2.88764903	13.77130849	1.23137091	4.68947995	12.09420699	-3.02537994	4.36090763	11.14963430	-1.46229085	2.28629283	10.35561242	-0.65432562	-2.50656855	3.53178364	2.34949402	10.98331353	3.27948556	0.95457261	13.29042131
861	8.60000000	10.54117820	-0.47258837	7.01686858	11.84599291	0.31687831	4.13503905	19.45771889	-5.35483360	7.32555916	15.15749058	-4.00814177	4.10962631	11.97445332	-1.41538978	2.31287228	10.35906849	-0.05073629	-2.48148243	23.73699010	-2.34467955	18.94312933	3.17984023	0.35118528	13.32300352
862	8.61000000	11.31923428	-0.56986987	7.26999578	13.45219899	2.09959088	4.90853962	22.41690044	-11.56963088	5.67594241	17.67852868	-5.04095159	2.85477801	12.82835543	-1.45177939	2.11256130	10.25410824	0.37828841	-2.29484147	20.43917844	-1.65452271	14.31144941	3.13745991	1.48988029	13.88296412
863	8.62000000	12.18706131	-0.60795715	7.69319881	14.61026827	3.89676267	4.87190695	18.64210098	-9.03461939	0.80468070	18.20018984	-4.39558772	0.47693440	13.83367796	-1.41275580	1.60344064	10.38042768	0.24914651	-1.94843956	13.82563540	6.83805826	13.58653505	3.19338577	2.07632918	14.11545838
864	8.63000000	12.80138112	-0.70373192	8.15158835	14.09023244	3.81568356	4.64254220	12.48207401	-2.05795919	1.31927853	15.88048809	-2.83586013	-0.16756510	15.40402424	-1.08305179	1.37466126	10.98597453	-0.45060458	-1.95300543	11.42834395	7.54123981	12.65812391	2.53579300	1.96225336	14.39627823
865	8.64000000	12.60396158	-0.89272444	8.34261518	12.01113336	1.41320071	4.72235475	7.49109986	3.32514141	2.92577104	11.36731303	-0.95801900	1.32005074	17.27585332	-0.38306703	1.24462093	11.74176668	-0.91755656	-1.91778624	6.69520167	5.86188538	10.57723957	2.14766797	2.81080775	15.40691608
866	8.65000000	11.61805356	-1.19590108	8.35304919	10.18756488	-1.37408740	4.92927581	4.98963055	6.81610316	1.36978682	7.00789203	0.54219162	1.46068665	18.40995823	0.82872179	1.02107202	11.67825973	-0.57835370	-1.35243650	5.57816026	4.42431604	10.18824456	1.68245288	2.90729226	15.19270932
867	8.66000000	10.37942230	-1.35295100	8.23394567	9.27022875	-3.43400425	5.20602701	4.74895668	7.92838195	-0.91853257	5.27776412	0.84956914	-0.42955234	17.69101738	1.83785974	0.94206963	11.14135463	-0.63238141	-0.83302426	5.15451318	0.03347759	9.42163181	1.71749212	1.66787997	15.02952651
868	8.67000000	9.55468250	-1.12886092	7.96657712	9.12694048	-4.75180400	5.69188464	4.79232772	8.20950879	-2.08123491	5.61094901	0.42425907	-1.98226730	16.51926724	0.53414849	0.78324295	10.45889425	-1.32382491	-0.88260071	5.37206715	-1.79413664	9.54790157	1.59814737	-1.01906501	14.20613100
869	8.68000000	9.10166496	-0.80862857	7.70818034	9.08605021	-5.14472902	5.80090242	5.40302931	8.59837278	-2.18078315	5.96780174	-0.54484954	-1.96366110	16.44519826	-1.97721795	0.19463495	9.67369262	-1.91058746	-0.88223840	5.50938297	-1.03194592	9.08402340	3.92309488	0.31267833	13.04314173
870	8.69000000	8.54140628	-0.75080754	7.31127327	8.34263256	-4.38653368	5.68241367	6.88454127	8.84532122	-0.89813110	6.06576380	-0.45439364	-0.93844342	16.04323257	-3.98891943	-0.76497276	9.55833863	-2.36355614	-0.51853594	5.39932610	-0.35220032	8.83356607	8.40108348	5.86982543	13.91118484
871	8.70000000	7.82448490	-0.93365414	6.63819182	7.53902329	-2.98040991	5.61879879	8.34833697	8.66654295	0.27709519	6.32417644	0.19227448	-0.24436997	14.06367833	-4.72186945	-0.62209003	10.11071448	-2.39939312	-0.20395459	4.95920390	-0.12503707	8.98376120	14.26619358	6.70751107	14.77042641
872	8.71000000	7.25147073	-1.11659764	5.95217134	7.18287690	-1.51451845	5.39290555	8.92986048	7.78149334	0.06306172	7.35269807	-0.20639592	-0.14547194	10.78392537	-4.00766526	1.36756815	11.02646319	-2.13811990	0.04720519	4.45687770	-0.10593579	9.06781112	17.53486146	4.79852817	14.38835988
873	8.72000000	7.31480593	-1.21615580	5.54054595	7.34715860	-0.23293928	5.08287626	9.59452173	6.53441880	-0.04741343	9.25396516	-1.22789982	-0.25267328	7.30733769	-4.10812513	3.90853758	11.96047112	-1.68986343	0.18797923	3.96425369	-0.26805366	9.12080993	15.38527131	5.44246650	13.67880983
874	8.73000000	8.09454179	-1.15077515	5.44204362	8.05267694	0.83939696	4.81433552	10.86950598	5.91648960	0.07563127	10.95238041	-2.26828755	-0.75504609	4.86864263	-5.18572124	5.65976167	12.49747496	-1.11131702	0.21084653	3.95894241	0.05614042	9.43989778	11.39734540	5.12610244	13.20255392
